<?xml version="1.0" standalone="no"?><!DOCTYPE svg PUBLIC "-//W3C//DTD SVG 1.1//EN" "http://www.w3.org/Graphics/SVG/1.1/DTD/svg11.dtd"><svg width="921" height="544" version="1.1" xmlns="http://www.w3.org/2000/svg" xmlns:xlink="http://www.w3.org/1999/xlink"><defs xmlns="http://www.w3.org/1999/xhtml"><style type="text/css"><![CDATA[
.axis path, .axis line { fill: none; stroke: black; shape-rendering: crispEdges; }
.axis text { font-size: 10px; font-family: sans-serif; }
text .label { font-size: 10px; font-family: sans-serif; }
.text-label { font-size: 10px; font-family: sans-serif; }
.dot { stroke: rgb(41, 59, 71); fill: rgb(70, 130, 180); }]]></style></defs><g transform="translate(40,20)"><g class="x axis" transform="translate(0,494)"><g class="tick" transform="translate(0,0)" style="opacity: 1;"><line y2="6" x2="0"/><text dy=".71em" y="9" x="0" style="text-anchor: middle;">0</text></g><g class="tick" transform="translate(66.23076923076924,0)" style="opacity: 1;"><line y2="6" x2="0"/><text dy=".71em" y="9" x="0" style="text-anchor: middle;">1</text></g><g class="tick" transform="translate(132.46153846153848,0)" style="opacity: 1;"><line y2="6" x2="0"/><text dy=".71em" y="9" x="0" style="text-anchor: middle;">2</text></g><g class="tick" transform="translate(198.6923076923077,0)" style="opacity: 1;"><line y2="6" x2="0"/><text dy=".71em" y="9" x="0" style="text-anchor: middle;">3</text></g><g class="tick" transform="translate(264.92307692307696,0)" style="opacity: 1;"><line y2="6" x2="0"/><text dy=".71em" y="9" x="0" style="text-anchor: middle;">4</text></g><g class="tick" transform="translate(331.1538461538462,0)" style="opacity: 1;"><line y2="6" x2="0"/><text dy=".71em" y="9" x="0" style="text-anchor: middle;">5</text></g><g class="tick" transform="translate(397.3846153846154,0)" style="opacity: 1;"><line y2="6" x2="0"/><text dy=".71em" y="9" x="0" style="text-anchor: middle;">6</text></g><g class="tick" transform="translate(463.6153846153846,0)" style="opacity: 1;"><line y2="6" x2="0"/><text dy=".71em" y="9" x="0" style="text-anchor: middle;">7</text></g><g class="tick" transform="translate(529.8461538461539,0)" style="opacity: 1;"><line y2="6" x2="0"/><text dy=".71em" y="9" x="0" style="text-anchor: middle;">8</text></g><g class="tick" transform="translate(596.0769230769231,0)" style="opacity: 1;"><line y2="6" x2="0"/><text dy=".71em" y="9" x="0" style="text-anchor: middle;">9</text></g><g class="tick" transform="translate(662.3076923076924,0)" style="opacity: 1;"><line y2="6" x2="0"/><text dy=".71em" y="9" x="0" style="text-anchor: middle;">10</text></g><g class="tick" transform="translate(728.5384615384615,0)" style="opacity: 1;"><line y2="6" x2="0"/><text dy=".71em" y="9" x="0" style="text-anchor: middle;">11</text></g><g class="tick" transform="translate(794.7692307692308,0)" style="opacity: 1;"><line y2="6" x2="0"/><text dy=".71em" y="9" x="0" style="text-anchor: middle;">12</text></g><g class="tick" transform="translate(861,0)" style="opacity: 1;"><line y2="6" x2="0"/><text dy=".71em" y="9" x="0" style="text-anchor: middle;">13</text></g><path class="domain" d="M0,6V0H861V6"/><text class="label" x="861" y="-6" style="text-anchor: end;">Degree (number of links through a node)</text></g><g class="y axis"><g class="tick" transform="translate(0,494)" style="opacity: 1;"><line x2="-6" y2="0"/><text dy=".32em" x="-9" y="0" style="text-anchor: end;">0</text></g><g class="tick" transform="translate(0,444.6)" style="opacity: 1;"><line x2="-6" y2="0"/><text dy=".32em" x="-9" y="0" style="text-anchor: end;">1</text></g><g class="tick" transform="translate(0,395.20000000000005)" style="opacity: 1;"><line x2="-6" y2="0"/><text dy=".32em" x="-9" y="0" style="text-anchor: end;">2</text></g><g class="tick" transform="translate(0,345.79999999999995)" style="opacity: 1;"><line x2="-6" y2="0"/><text dy=".32em" x="-9" y="0" style="text-anchor: end;">3</text></g><g class="tick" transform="translate(0,296.4)" style="opacity: 1;"><line x2="-6" y2="0"/><text dy=".32em" x="-9" y="0" style="text-anchor: end;">4</text></g><g class="tick" transform="translate(0,247)" style="opacity: 1;"><line x2="-6" y2="0"/><text dy=".32em" x="-9" y="0" style="text-anchor: end;">5</text></g><g class="tick" transform="translate(0,197.60000000000002)" style="opacity: 1;"><line x2="-6" y2="0"/><text dy=".32em" x="-9" y="0" style="text-anchor: end;">6</text></g><g class="tick" transform="translate(0,148.20000000000002)" style="opacity: 1;"><line x2="-6" y2="0"/><text dy=".32em" x="-9" y="0" style="text-anchor: end;">7</text></g><g class="tick" transform="translate(0,98.79999999999998)" style="opacity: 1;"><line x2="-6" y2="0"/><text dy=".32em" x="-9" y="0" style="text-anchor: end;">8</text></g><g class="tick" transform="translate(0,49.39999999999999)" style="opacity: 1;"><line x2="-6" y2="0"/><text dy=".32em" x="-9" y="0" style="text-anchor: end;">9</text></g><g class="tick" transform="translate(0,0)" style="opacity: 1;"><line x2="-6" y2="0"/><text dy=".32em" x="-9" y="0" style="text-anchor: end;">10</text></g><path class="domain" d="M-6,0H0V494H-6"/><text class="label" transform="rotate(-90)" y="6" dy=".71em" style="text-anchor: end;">Clustering groups (number)</text></g><circle class="dot" r="12.665119485563402" cx="66.23076923076924" cy="49.39999999999999" style="fill: rgb(0, 135, 240);"/><circle class="dot" r="10.885350963703626" cx="132.46153846153848" cy="49.39999999999999" style="fill: rgb(0, 143, 239);"/><circle class="dot" r="16.779756722229116" cx="66.23076923076924" cy="98.79999999999998" style="fill: rgb(32, 117, 237);"/><circle class="dot" r="19.4" cx="132.46153846153848" cy="296.4" style="fill: rgb(55, 104, 234);"/><circle class="dot" r="11.131230368041749" cx="66.23076923076924" cy="98.79999999999998" style="fill: rgb(0, 142, 239);"/><circle class="dot" r="7.088078971323785" cx="198.6923076923077" cy="98.79999999999998" style="fill: rgb(0, 158, 240);"/><circle class="dot" r="6.488059673423724" cx="198.6923076923077" cy="98.79999999999998" style="fill: rgb(0, 160, 239);"/><circle class="dot" r="8.546404782158486" cx="264.92307692307696" cy="49.39999999999999" style="fill: rgb(0, 152, 239);"/><circle class="dot" r="11.519893382804078" cx="132.46153846153848" cy="49.39999999999999" style="fill: rgb(0, 140, 240);"/><circle class="dot" r="7.327133876951546" cx="331.1538461538462" cy="98.79999999999998" style="fill: rgb(0, 157, 240);"/><circle class="dot" r="6.464100056704996" cx="264.92307692307696" cy="148.20000000000002" style="fill: rgb(0, 160, 239);"/><circle class="dot" r="10.385465082037083" cx="264.92307692307696" cy="148.20000000000002" style="fill: rgb(1, 145, 239);"/><circle class="dot" r="6.608669212852671" cx="264.92307692307696" cy="395.20000000000005" style="fill: rgb(0, 160, 239);"/><circle class="dot" r="6.804798738460874" cx="596.0769230769231" cy="247" style="fill: rgb(0, 159, 239);"/><circle class="dot" r="7.834403795602613" cx="596.0769230769231" cy="148.20000000000002" style="fill: rgb(0, 155, 240);"/><circle class="dot" r="6.44" cx="596.0769230769231" cy="444.6" style="fill: rgb(0, 161, 239);"/><circle class="dot" r="6.719789067657802" cx="728.5384615384615" cy="98.79999999999998" style="fill: rgb(0, 159, 239);"/><circle class="dot" r="6.44" cx="794.7692307692308" cy="444.6" style="fill: rgb(0, 161, 239);"/><circle class="dot" r="6.44" cx="397.3846153846154" cy="444.6" style="fill: rgb(0, 161, 239);"/><circle class="dot" r="12.365601836570203" cx="264.92307692307696" cy="98.79999999999998" style="fill: rgb(0, 137, 240);"/><circle class="dot" r="8.06279394106467" cx="794.7692307692308" cy="148.20000000000002" style="fill: rgb(0, 154, 240);"/><text x="66.23076923076924" y="98.79999999999998" dy="24" text-anchor="middle" font-family="ubuntu" transform="translate(0,27)">H2</text><text x="132.46153846153848" y="296.4" dy="24" text-anchor="middle" font-family="ubuntu" transform="translate(1,-46)">N2O5</text><text x="66.23076923076924" y="98.79999999999998" dy="24" text-anchor="middle" font-family="ubuntu" transform="translate(1,11)">H2O2</text><text x="198.6923076923077" y="98.79999999999998" dy="24" text-anchor="middle" font-family="ubuntu">CH3OH</text><text x="198.6923076923077" y="98.79999999999998" dy="24" text-anchor="middle" font-family="ubuntu" transform="translate(4,14)">HONO</text><text x="264.92307692307696" y="49.39999999999999" dy="24" text-anchor="middle" font-family="ubuntu" transform="translate(2,1)">CO</text><text x="132.46153846153848" y="49.39999999999999" dy="24" text-anchor="middle" font-family="ubuntu" transform="translate(6,-47)">HO2NO2</text><text x="331.1538461538462" y="98.79999999999998" dy="24" text-anchor="middle" font-family="ubuntu">CH3O</text><text x="264.92307692307696" y="148.20000000000002" dy="24" text-anchor="middle" font-family="ubuntu" transform="translate(0,3)">CH3NO3</text><text x="264.92307692307696" y="148.20000000000002" dy="24" text-anchor="middle" font-family="ubuntu" transform="translate(-1,21)">HNO3</text><text x="264.92307692307696" y="395.20000000000005" dy="24" text-anchor="middle" font-family="ubuntu">CH3OOH</text><text x="596.0769230769231" y="247" dy="24" text-anchor="middle" font-family="ubuntu">HCHO</text><text x="596.0769230769231" y="148.20000000000002" dy="24" text-anchor="middle" font-family="ubuntu" transform="translate(0,2)">CH3O2</text><text x="596.0769230769231" y="444.6" dy="24" text-anchor="middle" font-family="ubuntu">NO3</text><text x="728.5384615384615" y="98.79999999999998" dy="24" text-anchor="middle" font-family="ubuntu">OH</text><text x="794.7692307692308" y="444.6" dy="24" text-anchor="middle" font-family="ubuntu">NO2</text><text x="397.3846153846154" y="444.6" dy="24" text-anchor="middle" font-family="ubuntu">NO</text><text x="264.92307692307696" y="98.79999999999998" dy="24" text-anchor="middle" font-family="ubuntu" transform="translate(1,3)">O3</text><text x="794.7692307692308" y="148.20000000000002" dy="24" text-anchor="middle" font-family="ubuntu">HO2</text><text x="65" y="5" dy="24" text-anchor="middle" font-family="ubuntu">CH4</text></g></svg>